0
SECTION
2
HEADER
9
$INSUNITS
70
4
9
$ACADVER
1
AC1014
9
$HANDSEED
5
FFFF
0
ENDSEC
0
SECTION
2
TABLES
0
TABLE
2
VPORT
5
8
100
AcDbSymbolTable
0
ENDTAB
0
TABLE
2
LTYPE
5
5
100
AcDbSymbolTable
0
LTYPE
5
14
100
AcDbSymbolTableRecord
100
AcDbLinetypeTableRecord
2
BYBLOCK
70
0
0
LTYPE
5
15
100
AcDbSymbolTableRecord
100
AcDbLinetypeTableRecord
2
BYLAYER
70
0
0
ENDTAB
0
TABLE
2
LAYER
5
2
100
AcDbSymbolTable
70
2
0
LAYER
5
50
100
AcDbSymbolTableRecord
100
AcDbLayerTableRecord
2
0
70
0
6
CONTINUOUS
0
ENDTAB
0
TABLE
2
STYLE
5
3
100
AcDbSymbolTable
70
1
0
STYLE
5
11
100
AcDbSymbolTableRecord
100
AcDbTextStyleTableRecord
2
STANDARD
70
0
0
ENDTAB
0
TABLE
2
VIEW
5
6
100
AcDbSymbolTable
70
0
0
ENDTAB
0
TABLE
2
UCS
5
7
100
AcDbSymbolTable
70
0
0
ENDTAB
0
TABLE
2
APPID
5
9
100
AcDbSymbolTable
70
2
0
APPID
5
12
100
AcDbSymbolTableRecord
100
AcDbRegAppTableRecord
2
ACAD
70
0
0
ENDTAB
0
TABLE
2
DIMSTYLE
5
A
100
AcDbSymbolTable
70
1
0
ENDTAB
0
TABLE
2
BLOCK_RECORD
5
1
100
AcDbSymbolTable
70
1
0
BLOCK_RECORD
5
1F
100
AcDbSymbolTableRecord
100
AcDbBlockTableRecord
2
*MODEL_SPACE
0
BLOCK_RECORD
5
1B
100
AcDbSymbolTableRecord
100
AcDbBlockTableRecord
2
*PAPER_SPACE
0
ENDTAB
0
ENDSEC
0
SECTION
2
BLOCKS
0
BLOCK
5
20
100
AcDbEntity
100
AcDbBlockBegin
2
*MODEL_SPACE
0
ENDBLK
5
21
100
AcDbEntity
100
AcDbBlockEnd
0
BLOCK
5
1C
100
AcDbEntity
100
AcDbBlockBegin
2
*PAPER_SPACE
0
ENDBLK
5
1D
100
AcDbEntity
100
AcDbBlockEnd
0
ENDSEC
0
SECTION
2
ENTITIES
0
LINE
5
100
100
AcDbEntity
8
0
100
AcDbLine
10
-66.099999999999994
20
-35.200000000000003
30
0
11
-55.100000000000009
21
-35.200000000000003
31
0
0
ELLIPSE
5
101
100
AcDbEntity
8
0
100
AcDbEllipse
10
-55.100000000000009
20
-34.640983005625003
30
0
11
0
21
0.55901699437499996
31
0.0
40
0.89442719099983181
41
3.1415926535898073
42
4.7123889803846897
0
LINE
5
102
100
AcDbEntity
8
0
100
AcDbLine
10
-54.600000000000009
20
-34.640983005625003
30
0
11
-54.600000000000009
21
-34.5
31
0
0
ARC
5
103
100
AcDbEntity
8
0
100
AcDbCircle
10
-53.100000000000009
20
-34.500000000000014
30
0
40
1.500000000000008
210
0
220
-0
230
1
100
AcDbArc
50
90
51
180
0
LINE
5
104
100
AcDbEntity
8
0
100
AcDbLine
10
-53.100000000000009
20
-33
30
0
11
-14.100000000000001
21
-33
31
0
0
ARC
5
105
100
AcDbEntity
8
0
100
AcDbCircle
10
-14.100000000000001
20
-34.5
30
0
40
1.4999999999999991
210
0
220
0
230
1
100
AcDbArc
50
0
51
90
0
LINE
5
106
100
AcDbEntity
8
0
100
AcDbLine
10
-12.600000000000001
20
-34.5
30
0
11
-12.6
21
-34.640983005625003
31
0
0
ELLIPSE
5
107
100
AcDbEntity
8
0
100
AcDbEllipse
10
-12.1
20
-34.640983005625003
30
0
11
0
21
0.55901699437499996
31
0.0
40
0.89442719099983181
41
1.5707963267948966
42
3.1415926535897967
0
LINE
5
108
100
AcDbEntity
8
0
100
AcDbLine
10
-12.1
20
-35.200000000000003
30
0
11
66.099999999999994
21
-35.200000000000003
31
0
0
ARC
5
109
100
AcDbEntity
8
0
100
AcDbCircle
10
66.099999999999994
20
-28.700000000000003
30
0
40
6.5000000000000036
210
-0
220
0
230
1
100
AcDbArc
50
-90
51
0
0
LINE
5
110
100
AcDbEntity
8
0
100
AcDbLine
10
72.599999999999994
20
-28.700000000000003
30
0
11
72.599999999999994
21
28.700000000000003
31
0
0
ARC
5
111
100
AcDbEntity
8
0
100
AcDbCircle
10
66.099999999999994
20
28.700000000000003
30
0
40
6.5000000000000036
210
0
220
-0
230
1
100
AcDbArc
50
0
51
90
0
LINE
5
112
100
AcDbEntity
8
0
100
AcDbLine
10
66.099999999999994
20
35.200000000000003
30
0
11
-66.099999999999994
21
35.200000000000003
31
0
0
ARC
5
113
100
AcDbEntity
8
0
100
AcDbCircle
10
-66.099999999999994
20
28.700000000000003
30
0
40
6.5000000000000036
210
-0
220
0
230
1
100
AcDbArc
50
90
51
180
0
LINE
5
114
100
AcDbEntity
8
0
100
AcDbLine
10
-72.599999999999994
20
28.700000000000003
30
0
11
-72.599999999999994
21
-28.700000000000003
31
0
0
ARC
5
115
100
AcDbEntity
8
0
100
AcDbCircle
10
-66.099999999999994
20
-28.700000000000003
30
0
40
6.5000000000000036
210
0
220
0
230
1
100
AcDbArc
50
180
51
270
0
LWPOLYLINE
5
116
100
AcDbEntity
8
0
100
AcDbPolyline
90
8
70
1
43
0.0
10
-69
20
0.35999999999999865
42
-0.41421356237309354
10
-65.209999999999994
20
4.1499999999999995
10
-65.189999999999998
20
4.1500000000000039
42
-0.41421356237309576
10
-61.400000000000006
20
0.36000000000000032
10
-61.400000000000006
20
-22.059999999999999
42
-0.41421356237309681
10
-65.189999999999998
20
-25.850000000000001
10
-65.209999999999994
20
-25.850000000000005
42
-0.41421356237309365
10
-69
20
-22.059999999999999
0
CIRCLE
5
117
100
AcDbEntity
8
0
100
AcDbCircle
10
-36.100000000000001
20
0
30
0
40
7.0000000000000009
210
0
220
0
230
1
0
LWPOLYLINE
5
118
100
AcDbEntity
8
0
100
AcDbPolyline
90
12
70
1
43
0.0
10
-56.349615361854397
20
-33.200000000000003
10
-66.099999999999994
20
-33.200000000000003
42
-0.41421356237309503
10
-70.599999999999994
20
-28.700000000000003
10
-70.599999999999994
20
28.700000000000003
42
-0.41421356237309503
10
-66.099999999999994
20
33.200000000000003
10
66.099999999999994
20
33.200000000000003
42
-0.41421356237309503
10
70.599999999999994
20
28.700000000000003
10
70.599999999999994
20
-28.700000000000003
42
-0.41421356237309503
10
66.099999999999994
20
-33.200000000000003
10
-10.850384638145618
20
-33.200000000000003
42
0.3066672782796967
10
-14.100000000000001
20
-31
10
-53.100000000000009
20
-31
42
0.30666727827969625
0
ENDSEC
0
SECTION
2
OBJECTS
0
DICTIONARY
5
C
100
AcDbDictionary
3
ACAD_GROUP
350
D
3
ACAD_MLINESTYLE
350
17
0
DICTIONARY
5
D
100
AcDbDictionary
0
DICTIONARY
5
1A
330
C
100
AcDbDictionary
0
DICTIONARY
5
17
100
AcDbDictionary
0
ENDSEC
0
EOF
