  0
SECTION
  2
HEADER
  9
$ACADVER
  1
AC1014
  9
$HANDSEED
  5
FFFF
  9
$MEASUREMENT
 70
     1
  0
ENDSEC
  0
SECTION
  2
TABLES
  0
TABLE
  2
VPORT
  5
8
330
0
100
AcDbSymbolTable
 70
     4
  0
VPORT
  5
2E
330
8
100
AcDbSymbolTableRecord
100
AcDbViewportTableRecord
  2
*ACTIVE
 70
     0
 10
0.0
 20
0.0
 11
1.0
 21
1.0
 12
210.0
 22
148.5
 13
0.0
 23
0.0
 14
10.0
 24
10.0
 15
10.0
 25
10.0
 16
0.0
 26
0.0
 36
1.0
 17
0.0
 27
0.0
 37
0.0
 40
341.0
 41
1.24
 42
50.0
 43
0.0
 44
0.0
 50
0.0
 51
0.0
 71
     0
 72
   100
 73
     1
 74
     3
 75
     0
 76
     0
 77
     0
 78
     0
  0
ENDTAB
  0
TABLE
  2
LTYPE
  5
5
330
0
100
AcDbSymbolTable
 70
     1
  0
LTYPE
  5
14
330
5
100
AcDbSymbolTableRecord
100
AcDbLinetypeTableRecord
  2
BYBLOCK
 70
     0
  3

 72
    65
 73
     0
 40
0.0
  0
LTYPE
  5
15
330
5
100
AcDbSymbolTableRecord
100
AcDbLinetypeTableRecord
  2
BYLAYER
 70
     0
  3

 72
    65
 73
     0
 40
0.0
  0
LTYPE
  5
16
330
5
100
AcDbSymbolTableRecord
100
AcDbLinetypeTableRecord
  2
CONTINUOUS
 70
     0
  3
Solid line
 72
    65
 73
     0
 40
0.0
  0
ENDTAB
  0
TABLE
  2
LAYER
  5
2
100
AcDbSymbolTable
 70
2
  0
LAYER
  5
50
100
AcDbSymbolTableRecord
100
AcDbLayerTableRecord
  2
0
 70
0
  6
CONTINUOUS
  0
LAYER
  5
51
100
AcDbSymbolTableRecord
100
AcDbLayerTableRecord
  2
Layer_1
 70
0
  6
CONTINUOUS
  0
ENDTAB
  0
TABLE
  2
STYLE
  5
3
330
0
100
AcDbSymbolTable
 70
     1
  0
STYLE
  5
11
330
3
100
AcDbSymbolTableRecord
100
AcDbTextStyleTableRecord
  2
STANDARD
 70
     0
 40
0.0
 41
1.0
 50
0.0
 71
     0
 42
2.5
  3
txt
  4

  0
ENDTAB
  0
TABLE
  2
VIEW
  5
6
330
0
100
AcDbSymbolTable
 70
     0
  0
ENDTAB
  0
TABLE
  2
UCS
  5
7
330
0
100
AcDbSymbolTable
 70
     0
  0
ENDTAB
  0
TABLE
  2
APPID
  5
9
330
0
100
AcDbSymbolTable
 70
     2
  0
APPID
  5
12
330
9
100
AcDbSymbolTableRecord
100
AcDbRegAppTableRecord
  2
ACAD
 70
     0
  0
ENDTAB
  0
TABLE
  2
DIMSTYLE
  5
A
330
0
100
AcDbSymbolTable
 70
     1
  0
DIMSTYLE
105
27
330
A
100
AcDbSymbolTableRecord
100
AcDbDimStyleTableRecord
  2
ISO-25
 70
     0
  3

  4

  5

  6

  7

 40
1.0
 41
2.5
 42
0.625
 43
3.75
 44
1.25
 45
0.0
 46
0.0
 47
0.0
 48
0.0
140
2.5
141
2.5
142
0.0
143
0.03937007874016
144
1.0
145
0.0
146
1.0
147
0.625
 71
     0
 72
     0
 73
     0
 74
     0
 75
     0
 76
     0
 77
     1
 78
     8
170
     0
171
     3
172
     1
173
     0
174
     0
175
     0
176
     0
177
     0
178
     0
270
     2
271
     2
272
     2
273
     2
274
     3
340
11
275
     0
280
     0
281
     0
282
     0
283
     0
284
     8
285
     0
286
     0
287
     3
288
     0
  0
ENDTAB
  0
TABLE
  2
BLOCK_RECORD
  5
1
330
0
100
AcDbSymbolTable
 70
     1
  0
BLOCK_RECORD
  5
1F
330
1
100
AcDbSymbolTableRecord
100
AcDbBlockTableRecord
  2
*MODEL_SPACE
  0
BLOCK_RECORD
  5
1B
330
1
100
AcDbSymbolTableRecord
100
AcDbBlockTableRecord
  2
*PAPER_SPACE
  0
ENDTAB
  0
ENDSEC
  0
SECTION
  2
BLOCKS
  0
BLOCK
  5
20
330
1F
100
AcDbEntity
  8
0
100
AcDbBlockBegin
  2
*MODEL_SPACE
 70
     0
 10
0.0
 20
0.0
 30
0.0
  3
*MODEL_SPACE
  1

  0
ENDBLK
  5
21
330
1F
100
AcDbEntity
  8
0
100
AcDbBlockEnd
  0
BLOCK
  5
1C
330
1B
100
AcDbEntity
 67
     1
  8
0
100
AcDbBlockBegin
  2
*PAPER_SPACE
  1

  0
ENDBLK
  5
1D
330
1B
100
AcDbEntity
 67
     1
  8
0
100
AcDbBlockEnd
  0
ENDSEC
  0
SECTION
  2
ENTITIES
  0
LWPOLYLINE
  5
100
100
AcDbEntity
  8
Layer_1
 62
1
100
AcDbPolyline
 90
6
 70
1
 10
369.124261
 20
-35.856045
 30
0.0
 10
374.241585
 20
-26.992578
 30
0.0
 10
384.476218
 20
-26.992578
 30
0.0
 10
389.593541
 20
-35.856045
 30
0.0
 10
384.476218
 20
-44.719497
 30
0.0
 10
374.241570
 20
-44.719497
 30
0.0
  0
LWPOLYLINE
  5
101
100
AcDbEntity
  8
Layer_1
 62
1
100
AcDbPolyline
 90
6
 70
1
 10
333.434405
 20
-35.856045
 30
0.0
 10
338.551729
 20
-26.992578
 30
0.0
 10
348.786362
 20
-26.992578
 30
0.0
 10
353.903685
 20
-35.856045
 30
0.0
 10
348.786362
 20
-44.719497
 30
0.0
 10
338.551729
 20
-44.719497
 30
0.0
  0
LWPOLYLINE
  5
102
100
AcDbEntity
  8
Layer_1
 62
1
100
AcDbPolyline
 90
6
 70
1
 10
351.279362
 20
-25.553260
 30
0.0
 10
356.396671
 20
-16.689808
 30
0.0
 10
366.631318
 20
-16.689808
 30
0.0
 10
371.748628
 20
-25.553260
 30
0.0
 10
366.631318
 20
-34.416712
 30
0.0
 10
356.396671
 20
-34.416712
 30
0.0
  0
LWPOLYLINE
  5
103
100
AcDbEntity
  8
Layer_1
 62
1
100
AcDbPolyline
 90
6
 70
1
 10
369.124261
 20
-15.250475
 30
0.0
 10
374.241585
 20
-6.387023
 30
0.0
 10
384.476218
 20
-6.387023
 30
0.0
 10
389.593541
 20
-15.250475
 30
0.0
 10
384.476218
 20
-24.113942
 30
0.0
 10
374.241570
 20
-24.113942
 30
0.0
  0
LWPOLYLINE
  5
104
100
AcDbEntity
  8
Layer_1
 62
1
100
AcDbPolyline
 90
6
 70
1
 10
297.744563
 20
-35.856045
 30
0.0
 10
302.861873
 20
-26.992578
 30
0.0
 10
313.096520
 20
-26.992578
 30
0.0
 10
318.213829
 20
-35.856045
 30
0.0
 10
313.096520
 20
-44.719497
 30
0.0
 10
302.861873
 20
-44.719497
 30
0.0
  0
LWPOLYLINE
  5
105
100
AcDbEntity
  8
Layer_1
 62
1
100
AcDbPolyline
 90
6
 70
1
 10
315.589462
 20
-25.553260
 30
0.0
 10
320.706786
 20
-16.689808
 30
0.0
 10
330.941419
 20
-16.689808
 30
0.0
 10
336.058743
 20
-25.553260
 30
0.0
 10
330.941419
 20
-34.416712
 30
0.0
 10
320.706786
 20
-34.416712
 30
0.0
  0
LWPOLYLINE
  5
106
100
AcDbEntity
  8
Layer_1
 62
1
100
AcDbPolyline
 90
6
 70
1
 10
333.434405
 20
-15.250475
 30
0.0
 10
338.551729
 20
-6.387023
 30
0.0
 10
348.786362
 20
-6.387023
 30
0.0
 10
353.903685
 20
-15.250475
 30
0.0
 10
348.786362
 20
-24.113942
 30
0.0
 10
338.551729
 20
-24.113942
 30
0.0
  0
LWPOLYLINE
  5
107
100
AcDbEntity
  8
Layer_1
 62
1
100
AcDbPolyline
 90
6
 70
1
 10
351.279362
 20
-4.947748
 30
0.0
 10
356.396671
 20
3.915718
 30
0.0
 10
366.631318
 20
3.915718
 30
0.0
 10
371.748628
 20
-4.947748
 30
0.0
 10
366.631318
 20
-13.811200
 30
0.0
 10
356.396671
 20
-13.811200
 30
0.0
  0
LWPOLYLINE
  5
108
100
AcDbEntity
  8
Layer_1
 62
1
100
AcDbPolyline
 90
6
 70
1
 10
369.124261
 20
5.355051
 30
0.0
 10
374.241585
 20
14.218517
 30
0.0
 10
384.476218
 20
14.218517
 30
0.0
 10
389.593541
 20
5.355051
 30
0.0
 10
384.476218
 20
-3.508401
 30
0.0
 10
374.241570
 20
-3.508401
 30
0.0
  0
LWPOLYLINE
  5
109
100
AcDbEntity
  8
Layer_1
 62
1
100
AcDbPolyline
 90
6
 70
1
 10
262.054678
 20
-35.856045
 30
0.0
 10
267.172002
 20
-26.992578
 30
0.0
 10
277.406649
 20
-26.992578
 30
0.0
 10
282.523959
 20
-35.856045
 30
0.0
 10
277.406635
 20
-44.719497
 30
0.0
 10
267.172002
 20
-44.719497
 30
0.0
  0
LWPOLYLINE
  5
10a
100
AcDbEntity
  8
Layer_1
 62
1
100
AcDbPolyline
 90
6
 70
1
 10
279.899650
 20
-25.553260
 30
0.0
 10
285.016973
 20
-16.689808
 30
0.0
 10
295.251606
 20
-16.689808
 30
0.0
 10
300.368930
 20
-25.553260
 30
0.0
 10
295.251606
 20
-34.416712
 30
0.0
 10
285.016973
 20
-34.416712
 30
0.0
  0
LWPOLYLINE
  5
10b
100
AcDbEntity
  8
Layer_1
 62
1
100
AcDbPolyline
 90
6
 70
1
 10
297.744563
 20
-15.250475
 30
0.0
 10
302.861873
 20
-6.387023
 30
0.0
 10
313.096520
 20
-6.387023
 30
0.0
 10
318.213829
 20
-15.250475
 30
0.0
 10
313.096520
 20
-24.113942
 30
0.0
 10
302.861873
 20
-24.113942
 30
0.0
  0
LWPOLYLINE
  5
10c
100
AcDbEntity
  8
Layer_1
 62
1
100
AcDbPolyline
 90
6
 70
1
 10
315.589462
 20
-4.947748
 30
0.0
 10
320.706786
 20
3.915718
 30
0.0
 10
330.941419
 20
3.915718
 30
0.0
 10
336.058743
 20
-4.947748
 30
0.0
 10
330.941419
 20
-13.811200
 30
0.0
 10
320.706786
 20
-13.811200
 30
0.0
  0
LWPOLYLINE
  5
10d
100
AcDbEntity
  8
Layer_1
 62
1
100
AcDbPolyline
 90
6
 70
1
 10
333.434405
 20
5.355051
 30
0.0
 10
338.551729
 20
14.218517
 30
0.0
 10
348.786362
 20
14.218517
 30
0.0
 10
353.903685
 20
5.355051
 30
0.0
 10
348.786362
 20
-3.508401
 30
0.0
 10
338.551729
 20
-3.508401
 30
0.0
  0
LWPOLYLINE
  5
10e
100
AcDbEntity
  8
Layer_1
 62
1
100
AcDbPolyline
 90
6
 70
1
 10
351.279362
 20
15.657836
 30
0.0
 10
356.396671
 20
24.521288
 30
0.0
 10
366.631318
 20
24.521288
 30
0.0
 10
371.748628
 20
15.657836
 30
0.0
 10
366.631318
 20
6.794384
 30
0.0
 10
356.396671
 20
6.794384
 30
0.0
  0
LWPOLYLINE
  5
10f
100
AcDbEntity
  8
Layer_1
 62
1
100
AcDbPolyline
 90
6
 70
1
 10
369.124261
 20
25.960620
 30
0.0
 10
374.241585
 20
34.824072
 30
0.0
 10
384.476218
 20
34.824072
 30
0.0
 10
389.593541
 20
25.960620
 30
0.0
 10
384.476218
 20
17.097154
 30
0.0
 10
374.241570
 20
17.097154
 30
0.0
  0
LWPOLYLINE
  5
110
100
AcDbEntity
  8
Layer_1
 62
1
100
AcDbPolyline
 90
6
 70
1
 10
226.364851
 20
-35.856045
 30
0.0
 10
231.482175
 20
-26.992578
 30
0.0
 10
241.716808
 20
-26.992578
 30
0.0
 10
246.834132
 20
-35.856045
 30
0.0
 10
241.716808
 20
-44.719497
 30
0.0
 10
231.482175
 20
-44.719497
 30
0.0
  0
LWPOLYLINE
  5
111
100
AcDbEntity
  8
Layer_1
 62
1
100
AcDbPolyline
 90
6
 70
1
 10
244.209765
 20
-25.553260
 30
0.0
 10
249.327074
 20
-16.689808
 30
0.0
 10
259.561721
 20
-16.689808
 30
0.0
 10
264.679031
 20
-25.553260
 30
0.0
 10
259.561721
 20
-34.416712
 30
0.0
 10
249.327074
 20
-34.416712
 30
0.0
  0
LWPOLYLINE
  5
112
100
AcDbEntity
  8
Layer_1
 62
1
100
AcDbPolyline
 90
6
 70
1
 10
262.054678
 20
-15.250475
 30
0.0
 10
267.172002
 20
-6.387023
 30
0.0
 10
277.406649
 20
-6.387023
 30
0.0
 10
282.523959
 20
-15.250475
 30
0.0
 10
277.406635
 20
-24.113942
 30
0.0
 10
267.172002
 20
-24.113942
 30
0.0
  0
LWPOLYLINE
  5
113
100
AcDbEntity
  8
Layer_1
 62
1
100
AcDbPolyline
 90
6
 70
1
 10
279.899650
 20
-4.947748
 30
0.0
 10
285.016973
 20
3.915718
 30
0.0
 10
295.251606
 20
3.915718
 30
0.0
 10
300.368930
 20
-4.947748
 30
0.0
 10
295.251606
 20
-13.811200
 30
0.0
 10
285.016973
 20
-13.811200
 30
0.0
  0
LWPOLYLINE
  5
114
100
AcDbEntity
  8
Layer_1
 62
1
100
AcDbPolyline
 90
6
 70
1
 10
297.744563
 20
5.355051
 30
0.0
 10
302.861873
 20
14.218517
 30
0.0
 10
313.096520
 20
14.218517
 30
0.0
 10
318.213829
 20
5.355051
 30
0.0
 10
313.096520
 20
-3.508401
 30
0.0
 10
302.861873
 20
-3.508401
 30
0.0
  0
LWPOLYLINE
  5
115
100
AcDbEntity
  8
Layer_1
 62
1
100
AcDbPolyline
 90
6
 70
1
 10
315.589462
 20
15.657836
 30
0.0
 10
320.706786
 20
24.521288
 30
0.0
 10
330.941419
 20
24.521288
 30
0.0
 10
336.058743
 20
15.657836
 30
0.0
 10
330.941419
 20
6.794384
 30
0.0
 10
320.706786
 20
6.794384
 30
0.0
  0
LWPOLYLINE
  5
116
100
AcDbEntity
  8
Layer_1
 62
1
100
AcDbPolyline
 90
6
 70
1
 10
333.434405
 20
25.960620
 30
0.0
 10
338.551729
 20
34.824072
 30
0.0
 10
348.786362
 20
34.824072
 30
0.0
 10
353.903685
 20
25.960620
 30
0.0
 10
348.786362
 20
17.097154
 30
0.0
 10
338.551729
 20
17.097154
 30
0.0
  0
LWPOLYLINE
  5
117
100
AcDbEntity
  8
Layer_1
 62
1
100
AcDbPolyline
 90
6
 70
1
 10
351.279362
 20
36.263391
 30
0.0
 10
356.396671
 20
45.126857
 30
0.0
 10
366.631318
 20
45.126857
 30
0.0
 10
371.748628
 20
36.263391
 30
0.0
 10
366.631318
 20
27.399939
 30
0.0
 10
356.396671
 20
27.399939
 30
0.0
  0
LWPOLYLINE
  5
118
100
AcDbEntity
  8
Layer_1
 62
1
100
AcDbPolyline
 90
6
 70
1
 10
369.124261
 20
46.566147
 30
0.0
 10
374.241585
 20
55.429613
 30
0.0
 10
384.476218
 20
55.429613
 30
0.0
 10
389.593541
 20
46.566147
 30
0.0
 10
384.476218
 20
37.702695
 30
0.0
 10
374.241570
 20
37.702695
 30
0.0
  0
LWPOLYLINE
  5
119
100
AcDbEntity
  8
Layer_1
 62
1
100
AcDbPolyline
 90
6
 70
1
 10
190.674966
 20
-35.856045
 30
0.0
 10
195.792276
 20
-26.992578
 30
0.0
 10
206.026923
 20
-26.992578
 30
0.0
 10
211.144232
 20
-35.856045
 30
0.0
 10
206.026923
 20
-44.719497
 30
0.0
 10
195.792276
 20
-44.719497
 30
0.0
  0
LWPOLYLINE
  5
11a
100
AcDbEntity
  8
Layer_1
 62
1
100
AcDbPolyline
 90
6
 70
1
 10
208.519880
 20
-25.553260
 30
0.0
 10
213.637204
 20
-16.689808
 30
0.0
 10
223.871851
 20
-16.689808
 30
0.0
 10
228.989160
 20
-25.553260
 30
0.0
 10
223.871851
 20
-34.416712
 30
0.0
 10
213.637204
 20
-34.416712
 30
0.0
  0
LWPOLYLINE
  5
11b
100
AcDbEntity
  8
Layer_1
 62
1
100
AcDbPolyline
 90
6
 70
1
 10
226.364851
 20
-15.250475
 30
0.0
 10
231.482175
 20
-6.387023
 30
0.0
 10
241.716808
 20
-6.387023
 30
0.0
 10
246.834132
 20
-15.250475
 30
0.0
 10
241.716808
 20
-24.113942
 30
0.0
 10
231.482175
 20
-24.113942
 30
0.0
  0
LWPOLYLINE
  5
11c
100
AcDbEntity
  8
Layer_1
 62
1
100
AcDbPolyline
 90
6
 70
1
 10
244.209765
 20
-4.947748
 30
0.0
 10
249.327074
 20
3.915718
 30
0.0
 10
259.561721
 20
3.915718
 30
0.0
 10
264.679031
 20
-4.947748
 30
0.0
 10
259.561721
 20
-13.811200
 30
0.0
 10
249.327074
 20
-13.811200
 30
0.0
  0
LWPOLYLINE
  5
11d
100
AcDbEntity
  8
Layer_1
 62
1
100
AcDbPolyline
 90
6
 70
1
 10
262.054678
 20
5.355051
 30
0.0
 10
267.172002
 20
14.218517
 30
0.0
 10
277.406649
 20
14.218517
 30
0.0
 10
282.523959
 20
5.355051
 30
0.0
 10
277.406635
 20
-3.508401
 30
0.0
 10
267.172002
 20
-3.508401
 30
0.0
  0
LWPOLYLINE
  5
11e
100
AcDbEntity
  8
Layer_1
 62
1
100
AcDbPolyline
 90
6
 70
1
 10
279.899650
 20
15.657836
 30
0.0
 10
285.016973
 20
24.521288
 30
0.0
 10
295.251606
 20
24.521288
 30
0.0
 10
300.368930
 20
15.657836
 30
0.0
 10
295.251606
 20
6.794384
 30
0.0
 10
285.016973
 20
6.794384
 30
0.0
  0
LWPOLYLINE
  5
11f
100
AcDbEntity
  8
Layer_1
 62
1
100
AcDbPolyline
 90
6
 70
1
 10
297.744563
 20
25.960620
 30
0.0
 10
302.861873
 20
34.824072
 30
0.0
 10
313.096520
 20
34.824072
 30
0.0
 10
318.213829
 20
25.960620
 30
0.0
 10
313.096520
 20
17.097154
 30
0.0
 10
302.861873
 20
17.097154
 30
0.0
  0
LWPOLYLINE
  5
120
100
AcDbEntity
  8
Layer_1
 62
1
100
AcDbPolyline
 90
6
 70
1
 10
315.589462
 20
36.263391
 30
0.0
 10
320.706786
 20
45.126857
 30
0.0
 10
330.941419
 20
45.126857
 30
0.0
 10
336.058743
 20
36.263391
 30
0.0
 10
330.941419
 20
27.399939
 30
0.0
 10
320.706786
 20
27.399939
 30
0.0
  0
LWPOLYLINE
  5
121
100
AcDbEntity
  8
Layer_1
 62
1
100
AcDbPolyline
 90
6
 70
1
 10
333.434405
 20
46.566147
 30
0.0
 10
338.551729
 20
55.429613
 30
0.0
 10
348.786362
 20
55.429613
 30
0.0
 10
353.903685
 20
46.566147
 30
0.0
 10
348.786362
 20
37.702695
 30
0.0
 10
338.551729
 20
37.702695
 30
0.0
  0
LWPOLYLINE
  5
122
100
AcDbEntity
  8
Layer_1
 62
1
100
AcDbPolyline
 90
6
 70
1
 10
351.279362
 20
56.868960
 30
0.0
 10
356.396671
 20
65.732412
 30
0.0
 10
366.631318
 20
65.732412
 30
0.0
 10
371.748628
 20
56.868960
 30
0.0
 10
366.631318
 20
48.005494
 30
0.0
 10
356.396671
 20
48.005494
 30
0.0
  0
LWPOLYLINE
  5
123
100
AcDbEntity
  8
Layer_1
 62
1
100
AcDbPolyline
 90
6
 70
1
 10
369.124261
 20
67.171716
 30
0.0
 10
374.241585
 20
76.035168
 30
0.0
 10
384.476218
 20
76.035168
 30
0.0
 10
389.593541
 20
67.171716
 30
0.0
 10
384.476218
 20
58.308250
 30
0.0
 10
374.241570
 20
58.308250
 30
0.0
  0
LWPOLYLINE
  5
124
100
AcDbEntity
  8
Layer_1
 62
1
100
AcDbPolyline
 90
6
 70
1
 10
172.830053
 20
-25.553260
 30
0.0
 10
177.947376
 20
-16.689808
 30
0.0
 10
188.182009
 20
-16.689808
 30
0.0
 10
193.299333
 20
-25.553260
 30
0.0
 10
188.182009
 20
-34.416712
 30
0.0
 10
177.947376
 20
-34.416712
 30
0.0
  0
LWPOLYLINE
  5
125
100
AcDbEntity
  8
Layer_1
 62
1
100
AcDbPolyline
 90
6
 70
1
 10
190.674966
 20
-15.250475
 30
0.0
 10
195.792276
 20
-6.387023
 30
0.0
 10
206.026923
 20
-6.387023
 30
0.0
 10
211.144232
 20
-15.250475
 30
0.0
 10
206.026923
 20
-24.113942
 30
0.0
 10
195.792276
 20
-24.113942
 30
0.0
  0
LWPOLYLINE
  5
126
100
AcDbEntity
  8
Layer_1
 62
1
100
AcDbPolyline
 90
6
 70
1
 10
208.519880
 20
-4.947748
 30
0.0
 10
213.637204
 20
3.915718
 30
0.0
 10
223.871851
 20
3.915718
 30
0.0
 10
228.989160
 20
-4.947748
 30
0.0
 10
223.871851
 20
-13.811200
 30
0.0
 10
213.637204
 20
-13.811200
 30
0.0
  0
LWPOLYLINE
  5
127
100
AcDbEntity
  8
Layer_1
 62
1
100
AcDbPolyline
 90
6
 70
1
 10
226.364851
 20
5.355051
 30
0.0
 10
231.482175
 20
14.218517
 30
0.0
 10
241.716808
 20
14.218517
 30
0.0
 10
246.834132
 20
5.355051
 30
0.0
 10
241.716808
 20
-3.508401
 30
0.0
 10
231.482175
 20
-3.508401
 30
0.0
  0
LWPOLYLINE
  5
128
100
AcDbEntity
  8
Layer_1
 62
1
100
AcDbPolyline
 90
6
 70
1
 10
244.209765
 20
15.657836
 30
0.0
 10
249.327074
 20
24.521288
 30
0.0
 10
259.561721
 20
24.521288
 30
0.0
 10
264.679031
 20
15.657836
 30
0.0
 10
259.561721
 20
6.794384
 30
0.0
 10
249.327074
 20
6.794384
 30
0.0
  0
LWPOLYLINE
  5
129
100
AcDbEntity
  8
Layer_1
 62
1
100
AcDbPolyline
 90
6
 70
1
 10
262.054678
 20
25.960620
 30
0.0
 10
267.172002
 20
34.824072
 30
0.0
 10
277.406649
 20
34.824072
 30
0.0
 10
282.523959
 20
25.960620
 30
0.0
 10
277.406635
 20
17.097154
 30
0.0
 10
267.172002
 20
17.097154
 30
0.0
  0
LWPOLYLINE
  5
12a
100
AcDbEntity
  8
Layer_1
 62
1
100
AcDbPolyline
 90
6
 70
1
 10
279.899650
 20
36.263391
 30
0.0
 10
285.016973
 20
45.126857
 30
0.0
 10
295.251606
 20
45.126857
 30
0.0
 10
300.368930
 20
36.263391
 30
0.0
 10
295.251606
 20
27.399939
 30
0.0
 10
285.016973
 20
27.399939
 30
0.0
  0
LWPOLYLINE
  5
12b
100
AcDbEntity
  8
Layer_1
 62
1
100
AcDbPolyline
 90
6
 70
1
 10
297.744563
 20
46.566147
 30
0.0
 10
302.861873
 20
55.429613
 30
0.0
 10
313.096520
 20
55.429613
 30
0.0
 10
318.213829
 20
46.566147
 30
0.0
 10
313.096520
 20
37.702695
 30
0.0
 10
302.861873
 20
37.702695
 30
0.0
  0
LWPOLYLINE
  5
12c
100
AcDbEntity
  8
Layer_1
 62
1
100
AcDbPolyline
 90
6
 70
1
 10
315.589462
 20
56.868960
 30
0.0
 10
320.706786
 20
65.732412
 30
0.0
 10
330.941419
 20
65.732412
 30
0.0
 10
336.058743
 20
56.868960
 30
0.0
 10
330.941419
 20
48.005494
 30
0.0
 10
320.706786
 20
48.005494
 30
0.0
  0
LWPOLYLINE
  5
12d
100
AcDbEntity
  8
Layer_1
 62
1
100
AcDbPolyline
 90
6
 70
1
 10
333.434405
 20
67.171716
 30
0.0
 10
338.551729
 20
76.035168
 30
0.0
 10
348.786362
 20
76.035168
 30
0.0
 10
353.903685
 20
67.171716
 30
0.0
 10
348.786362
 20
58.308250
 30
0.0
 10
338.551729
 20
58.308250
 30
0.0
  0
LWPOLYLINE
  5
12e
100
AcDbEntity
  8
Layer_1
 62
1
100
AcDbPolyline
 90
6
 70
1
 10
172.830053
 20
-4.947748
 30
0.0
 10
177.947376
 20
3.915718
 30
0.0
 10
188.182009
 20
3.915718
 30
0.0
 10
193.299333
 20
-4.947748
 30
0.0
 10
188.182009
 20
-13.811200
 30
0.0
 10
177.947376
 20
-13.811200
 30
0.0
  0
LWPOLYLINE
  5
12f
100
AcDbEntity
  8
Layer_1
 62
1
100
AcDbPolyline
 90
6
 70
1
 10
190.674966
 20
5.355051
 30
0.0
 10
195.792276
 20
14.218517
 30
0.0
 10
206.026923
 20
14.218517
 30
0.0
 10
211.144232
 20
5.355051
 30
0.0
 10
206.026923
 20
-3.508401
 30
0.0
 10
195.792276
 20
-3.508401
 30
0.0
  0
LWPOLYLINE
  5
130
100
AcDbEntity
  8
Layer_1
 62
1
100
AcDbPolyline
 90
6
 70
1
 10
208.519880
 20
15.657836
 30
0.0
 10
213.637204
 20
24.521288
 30
0.0
 10
223.871851
 20
24.521288
 30
0.0
 10
228.989160
 20
15.657836
 30
0.0
 10
223.871851
 20
6.794384
 30
0.0
 10
213.637204
 20
6.794384
 30
0.0
  0
LWPOLYLINE
  5
131
100
AcDbEntity
  8
Layer_1
 62
1
100
AcDbPolyline
 90
6
 70
1
 10
226.364851
 20
25.960620
 30
0.0
 10
231.482175
 20
34.824072
 30
0.0
 10
241.716808
 20
34.824072
 30
0.0
 10
246.834132
 20
25.960620
 30
0.0
 10
241.716808
 20
17.097154
 30
0.0
 10
231.482175
 20
17.097154
 30
0.0
  0
LWPOLYLINE
  5
132
100
AcDbEntity
  8
Layer_1
 62
1
100
AcDbPolyline
 90
6
 70
1
 10
244.209765
 20
36.263391
 30
0.0
 10
249.327074
 20
45.126857
 30
0.0
 10
259.561721
 20
45.126857
 30
0.0
 10
264.679031
 20
36.263391
 30
0.0
 10
259.561721
 20
27.399939
 30
0.0
 10
249.327074
 20
27.399939
 30
0.0
  0
LWPOLYLINE
  5
133
100
AcDbEntity
  8
Layer_1
 62
1
100
AcDbPolyline
 90
6
 70
1
 10
262.054678
 20
46.566147
 30
0.0
 10
267.172002
 20
55.429613
 30
0.0
 10
277.406649
 20
55.429613
 30
0.0
 10
282.523959
 20
46.566147
 30
0.0
 10
277.406635
 20
37.702695
 30
0.0
 10
267.172002
 20
37.702695
 30
0.0
  0
LWPOLYLINE
  5
134
100
AcDbEntity
  8
Layer_1
 62
1
100
AcDbPolyline
 90
6
 70
1
 10
279.899650
 20
56.868960
 30
0.0
 10
285.016973
 20
65.732412
 30
0.0
 10
295.251606
 20
65.732412
 30
0.0
 10
300.368930
 20
56.868960
 30
0.0
 10
295.251606
 20
48.005494
 30
0.0
 10
285.016973
 20
48.005494
 30
0.0
  0
LWPOLYLINE
  5
135
100
AcDbEntity
  8
Layer_1
 62
1
100
AcDbPolyline
 90
6
 70
1
 10
297.744563
 20
67.171716
 30
0.0
 10
302.861873
 20
76.035168
 30
0.0
 10
313.096520
 20
76.035168
 30
0.0
 10
318.213829
 20
67.171716
 30
0.0
 10
313.096520
 20
58.308250
 30
0.0
 10
302.861873
 20
58.308250
 30
0.0
  0
LWPOLYLINE
  5
136
100
AcDbEntity
  8
Layer_1
 62
1
100
AcDbPolyline
 90
6
 70
1
 10
172.830053
 20
15.657836
 30
0.0
 10
177.947376
 20
24.521288
 30
0.0
 10
188.182009
 20
24.521288
 30
0.0
 10
193.299333
 20
15.657836
 30
0.0
 10
188.182009
 20
6.794384
 30
0.0
 10
177.947376
 20
6.794384
 30
0.0
  0
LWPOLYLINE
  5
137
100
AcDbEntity
  8
Layer_1
 62
1
100
AcDbPolyline
 90
6
 70
1
 10
190.674966
 20
25.960620
 30
0.0
 10
195.792276
 20
34.824072
 30
0.0
 10
206.026923
 20
34.824072
 30
0.0
 10
211.144232
 20
25.960620
 30
0.0
 10
206.026923
 20
17.097154
 30
0.0
 10
195.792276
 20
17.097154
 30
0.0
  0
LWPOLYLINE
  5
138
100
AcDbEntity
  8
Layer_1
 62
1
100
AcDbPolyline
 90
6
 70
1
 10
208.519880
 20
36.263391
 30
0.0
 10
213.637204
 20
45.126857
 30
0.0
 10
223.871851
 20
45.126857
 30
0.0
 10
228.989160
 20
36.263391
 30
0.0
 10
223.871851
 20
27.399939
 30
0.0
 10
213.637204
 20
27.399939
 30
0.0
  0
LWPOLYLINE
  5
139
100
AcDbEntity
  8
Layer_1
 62
1
100
AcDbPolyline
 90
6
 70
1
 10
226.364851
 20
46.566147
 30
0.0
 10
231.482175
 20
55.429613
 30
0.0
 10
241.716808
 20
55.429613
 30
0.0
 10
246.834132
 20
46.566147
 30
0.0
 10
241.716808
 20
37.702695
 30
0.0
 10
231.482175
 20
37.702695
 30
0.0
  0
LWPOLYLINE
  5
13a
100
AcDbEntity
  8
Layer_1
 62
1
100
AcDbPolyline
 90
6
 70
1
 10
244.209765
 20
56.868960
 30
0.0
 10
249.327074
 20
65.732412
 30
0.0
 10
259.561721
 20
65.732412
 30
0.0
 10
264.679031
 20
56.868960
 30
0.0
 10
259.561721
 20
48.005494
 30
0.0
 10
249.327074
 20
48.005494
 30
0.0
  0
LWPOLYLINE
  5
13b
100
AcDbEntity
  8
Layer_1
 62
1
100
AcDbPolyline
 90
6
 70
1
 10
262.054678
 20
67.171716
 30
0.0
 10
267.172002
 20
76.035168
 30
0.0
 10
277.406649
 20
76.035168
 30
0.0
 10
282.523959
 20
67.171716
 30
0.0
 10
277.406635
 20
58.308250
 30
0.0
 10
267.172002
 20
58.308250
 30
0.0
  0
LWPOLYLINE
  5
13c
100
AcDbEntity
  8
Layer_1
 62
1
100
AcDbPolyline
 90
6
 70
1
 10
172.830053
 20
36.263391
 30
0.0
 10
177.947376
 20
45.126857
 30
0.0
 10
188.182009
 20
45.126857
 30
0.0
 10
193.299333
 20
36.263391
 30
0.0
 10
188.182009
 20
27.399939
 30
0.0
 10
177.947376
 20
27.399939
 30
0.0
  0
LWPOLYLINE
  5
13d
100
AcDbEntity
  8
Layer_1
 62
1
100
AcDbPolyline
 90
6
 70
1
 10
190.674966
 20
46.566147
 30
0.0
 10
195.792276
 20
55.429613
 30
0.0
 10
206.026923
 20
55.429613
 30
0.0
 10
211.144232
 20
46.566147
 30
0.0
 10
206.026923
 20
37.702695
 30
0.0
 10
195.792276
 20
37.702695
 30
0.0
  0
LWPOLYLINE
  5
13e
100
AcDbEntity
  8
Layer_1
 62
1
100
AcDbPolyline
 90
6
 70
1
 10
208.519880
 20
56.868960
 30
0.0
 10
213.637204
 20
65.732412
 30
0.0
 10
223.871851
 20
65.732412
 30
0.0
 10
228.989160
 20
56.868960
 30
0.0
 10
223.871851
 20
48.005494
 30
0.0
 10
213.637204
 20
48.005494
 30
0.0
  0
LWPOLYLINE
  5
13f
100
AcDbEntity
  8
Layer_1
 62
1
100
AcDbPolyline
 90
6
 70
1
 10
226.364851
 20
67.171716
 30
0.0
 10
231.482175
 20
76.035168
 30
0.0
 10
241.716808
 20
76.035168
 30
0.0
 10
246.834132
 20
67.171716
 30
0.0
 10
241.716808
 20
58.308250
 30
0.0
 10
231.482175
 20
58.308250
 30
0.0
  0
LWPOLYLINE
  5
140
100
AcDbEntity
  8
Layer_1
 62
1
100
AcDbPolyline
 90
6
 70
1
 10
172.830053
 20
56.868960
 30
0.0
 10
177.947376
 20
65.732412
 30
0.0
 10
188.182009
 20
65.732412
 30
0.0
 10
193.299333
 20
56.868960
 30
0.0
 10
188.182009
 20
48.005494
 30
0.0
 10
177.947376
 20
48.005494
 30
0.0
  0
LWPOLYLINE
  5
141
100
AcDbEntity
  8
Layer_1
 62
1
100
AcDbPolyline
 90
6
 70
1
 10
190.674966
 20
67.171716
 30
0.0
 10
195.792276
 20
76.035168
 30
0.0
 10
206.026923
 20
76.035168
 30
0.0
 10
211.144232
 20
67.171716
 30
0.0
 10
206.026923
 20
58.308250
 30
0.0
 10
195.792276
 20
58.308250
 30
0.0
  0
ENDSEC
  0
SECTION
  2
OBJECTS
  0
DICTIONARY
  5
C
330
0
100
AcDbDictionary
  3
ACAD_GROUP
350
D
  3
ACAD_MLINESTYLE
350
17
  0
DICTIONARY
  5
D
330
C
100
AcDbDictionary
  0
DICTIONARY
  5
1A
330
C
100
AcDbDictionary
  0
DICTIONARY
  5
17
330
C
100
AcDbDictionary
  3
STANDARD
350
18
  0
DICTIONARY
  5
19
330
C
100
AcDbDictionary
  0
ENDSEC
  0
EOF
